<svg id="Layer_1" data-name="Layer 1" xmlns="http://www.w3.org/2000/svg" viewBox="0 0 490.77 233.97"><defs><style>.cls-1{fill:#fff;}</style></defs><title>Untitled-1</title><path id="path2824" class="cls-1" d="M4.71,237.58c.57-4.69,2.94-9.18,9.68-18.35,2-2.79,4.06-5.71,4.48-6.49l.76-1.43L25.29,209a737.19,737.19,0,0,1,92.33-29.7l4-1-.39-1.83a231.36,231.36,0,0,1-4-29.6c-.42-6.11-.42-22.51,0-28.32C118.91,95.91,123,75.9,129.74,57.9a152.16,152.16,0,0,1,7.37-16.66c2-4.05,2.71-5.66,2.33-5.46-.94.5-5.15,4.63-7.57,7.42-7.71,8.89-16,22-23.29,36.75-9.9,20.1-19,45.67-22.61,63.46-1.1,5.46-1.23,5.83-2.28,6.82s-2.46,1.54-5.38,1.9c-3.14.38-5.65.19-7.11-.55a7.16,7.16,0,0,1-3.36-4.13c-.56-2.3-1-39.33-.59-52.12.78-25.79,1.13-33.2,1.85-38.93A26.53,26.53,0,0,0,69.42,53c-.31-.31-2.87,2.48-4.54,4.95C53.06,75.43,44.94,98.43,41.07,125.46c-1.65,11.54-2.51,22-3.17,38.59l-.38,9.58-.91,1.7c-1.36,2.55-4.13,4.63-8.82,6.62-5.49,2.33-8.33,2.5-10.32.62-1.49-1.41-1.56-1.77-1.56-7.85,0-23.65,5.15-51.57,13.74-74.54s19.76-40.79,35-56C70.6,38.3,74.2,36.31,77,37.4a7.26,7.26,0,0,1,2.77,3c1,2.72,1.5,9.79,1.07,16.37-.25,3.82-.27,11.31-.09,29.67L81,111l1.5-3.7C90.41,87.79,101.91,65.54,111.6,51c7.51-11.27,16-20.73,23.54-26.12,7-5,14.39-6.75,17.57-4.07a5.79,5.79,0,0,1,1.9,4.08c0,1.94-1.31,7-3.57,13.68a152.68,152.68,0,0,0-5.23,18.93,318.49,318.49,0,0,0-5.89,38.13c-.47,5.08-.46,24.71,0,30.81a417.64,417.64,0,0,0,10.44,65.07c.68,2.89,2.15,8,3.27,11.47,2.27,6.91,3.46,11.34,3.46,12.82s-1.06,1.89-3.88,1.88c-5.41,0-15.47-4.34-21.61-9.26-3.13-2.51-3.8-3.71-5.35-9.59a10.53,10.53,0,0,0-.68-2c-.49-.56-28.68,7.6-46.83,13.55-23,7.54-47.76,17.14-65.19,25.28C8.48,238,5.65,239.17,5,239.17c-.37,0-.41-.24-.25-1.59Zm373.45-41.22c-2.49-.52-4.42-2.51-4.42-4.57,0-.63.61-4.06,1.36-7.63s1.87-9.09,2.5-12.28,1.21-6,1.29-6.29c.13-.46-.61-.48-12.93-.48-11.82,0-25.76.28-34.63.69-8.12.37-20,1-21.28,1.1-.76.07-2.69.2-4.28.29s-3.4.21-4,.28-2.22.19-3.59.28c-3.16.21-15.07,1.19-16.72,1.37L273,170c-6.15.6-10.47,1.06-15.47,1.66-3.81.45-12.74,1.57-14.37,1.8l-7,1c-25.06,3.46-53.45,8.61-77.57,14.09-2.31.53-4.32,1-4.45,1a8,8,0,0,1-.84-2.56c-.78-3.33-3.1-14.92-3-15s18.31-3.61,22.73-4.4c15.66-2.79,35.74-5.74,50.84-7.47l4.84-.56c1.19-.14,8.76-.93,10.64-1.11l4.14-.41c2.36-.24,8.21-.72,15.06-1.25,3.32-.25,9.51-.68,12.16-.83l4.56-.28c1.06-.07,3.49-.2,5.39-.28l5.8-.27c9.19-.48,29.1-.74,44.35-.59,9.57.1,17.78.23,18.24.29s3.5.2,6.77.29,6.5.22,7.18.28c2.42.22,14,.82,15.87.82h1.92l1.87-8.7c2.58-12,5-22.44,8.34-35.71,1.55-6.19,2.73-11.16,2.63-11.05s-1.86,2.44-3.91,5.17a154.11,154.11,0,0,1-13.31,15.86c-4.31,4.42-7.08,6.69-9.69,8a5.19,5.19,0,0,1-3.61.8c-3.57-.3-6.09-1.91-7.3-4.65a20.83,20.83,0,0,1-1-7.33,2.66,2.66,0,0,0,0-1.18,22.61,22.61,0,0,0-2.08,1.8c-3.9,3.61-7.43,6-13.63,9-5.2,2.59-7.25,3.41-10.43,4.13a29.49,29.49,0,0,1-11.24.13c-4.78-1.27-8.82-5.61-10.76-11.56L306,119l-4.89,3.12c-28.35,18.07-50.78,24-65.13,17.31-11-5.17-17.12-14.08-18.63-27.26-1.23-10.76,1.73-26.56,6.94-37,17.51-35,40.95-56.93,71.88-67.19a45.05,45.05,0,0,1,12-2.68c7.87-.76,16.59,1.3,20.22,4.79a18.77,18.77,0,0,1,4.75,9.21,52.52,52.52,0,0,1-.09,12.14l-.36,1.92-1.38.36a11,11,0,0,1-6.38-.2c-2.13-1-2.82-2.8-3.12-8.07-.2-3.52-.28-3.89-1-5.1-1.62-2.62-4.38-4-9.21-4.51A43.62,43.62,0,0,0,295.3,18c-4.33,1.47-10.82,5.31-16.07,9.48A100.74,100.74,0,0,0,266.3,40.58a108.15,108.15,0,0,0-23.15,62.51c-.2,5.31.15,7.44,1.81,10.81a15.55,15.55,0,0,0,5.66,6.43c10.44,7.22,23.12,7.23,37.86,0A86.5,86.5,0,0,0,305.6,109c1.5-1.28,1.72-1.61,2.52-3.87,1.82-5.1,5.93-11.81,10.45-17.06,8.15-9.48,20.56-17.56,33.56-21.88,10.42-3.46,21.1-4.37,25.36-2.17,3.27,1.69,4.45,7.3,2.75,13-1,3.25-2.08,5.89-5.44,12.94-2.43,5.09-4.29,9.38-6.38,14.71-1.16,3-.47,7.08,1.23,7.27,2.81.32,13.38-8.49,18.51-15.42,3.35-4.53,12.75-18.52,13.2-19.64,1.78-4.46,11-22.23,15-28.78C430,25.37,444.89,12.62,462,9c8.91-1.9,15.83.6,15.86,5.73a26,26,0,0,1-2.15,7.56c-1.75,2.39-6.16,2.1-7.49-.49a12.08,12.08,0,0,1-.84-2.69,5.12,5.12,0,0,0-.85-2.19c-.51-.51-.69-.53-3.11-.22C452.67,18,442.3,27.4,432.16,44.92a229.66,229.66,0,0,0-11.88,25.17c-.37,1.06-.37,1.13.08.94a100.49,100.49,0,0,1,10.12-2.4,40.41,40.41,0,0,1,7.37-.62c3.95,0,4.06,0,5.66.82a6.56,6.56,0,0,1,3.59,4.67c.36,2.39.15,2.52-5.12,3.45-10.39,1.83-19.54,5.74-26.46,11.31-2.06,1.66-2.36,2-3.08,3.77-3.76,9.11-8.18,28.59-11.75,51.81-1.94,12.63-4.33,31.19-5.43,42.28-.37,3.7-.43,3.8-3.56,5.86-4.88,3.21-10.48,5-13.55,4.39ZM332.72,115.1c5.6-1.42,13.52-6.43,18.63-11.78,5.91-6.2,12.73-16.76,14.81-23,.95-2.82,1-5.78.22-6.88-1.24-1.66-1.85-1.89-4.9-1.88a13.3,13.3,0,0,0-5.44.91,56.16,56.16,0,0,0-20.56,12.74,50.37,50.37,0,0,0-11.2,15c-2.42,5.16-2.95,9-1.59,11.7a6.56,6.56,0,0,0,3.51,3.38A14.13,14.13,0,0,0,332.72,115.1Zm159.55,60.77c-8.83-1.94-38.19-6.24-53.47-7.84-8.22-.86-9.17-.94-16.86-1.39l-4.7-.28c-1.22-.07-5-.26-8.42-.43s-6.24-.32-6.27-.35.16-1.61.42-3.5l.47-3.45,2.21.07c4.5.13,23.11,2.45,32.88,4.09a478.1,478.1,0,0,1,52.36,12.16c5.54,1.67,5.93,1.93,1.38.93Zm-8.25-26a8.91,8.91,0,0,1-6.44-5.76,8.41,8.41,0,0,1,5.35-10.41A9.06,9.06,0,0,1,492,136a7.06,7.06,0,0,1,2,5.6,6.34,6.34,0,0,1-.74,3.76,8.83,8.83,0,0,1-9.3,4.51Zm4.7-2.22c4-2,4.74-8.26,1.29-11.17a5.88,5.88,0,0,0-4.23-1.51,6.53,6.53,0,0,0-6,3.73,7.6,7.6,0,0,0,.09,6.11,6.62,6.62,0,0,0,8.85,2.84Zm-6.33-6,.08-4.9,2-.08c3.67-.15,5.21.75,5.15,3a2.21,2.21,0,0,1-1.55,2.29l-.76.32,1.24,1.92a15.18,15.18,0,0,1,1.25,2.14c0,.12-.39.19-.87.14-.76-.08-1-.35-2.09-2.09s-1.31-2-2-2H484v4.14h-1.67l.08-4.9Zm5.13-1.23a1.48,1.48,0,0,0,.33-.91c0-.94-.56-1.24-2.27-1.24H484v2.49h1.6A4.1,4.1,0,0,0,487.52,140.47Zm-51.38,4.71a34.41,34.41,0,0,1-9.48-2.57,15,15,0,0,1-6.31-6.45C416.57,129,418.1,119,424.69,108c6.82-11.44,15.17-19.11,26.88-24.72,6.1-2.92,14.18-5.23,19.7-5.63,8.8-.63,13.92,5.1,12,13.46-2.18,9.74-9.13,16.3-20.44,19.3a47.31,47.31,0,0,1-15.37,1.52l-6.88-.24-1.5,0-1.61,3c-2.05,3.88-2.72,5.83-2.92,8.48a5.22,5.22,0,0,0,.58,3.64,6.28,6.28,0,0,0,3.69,3.47,36.45,36.45,0,0,0,13.07.45c8.19-1.09,14.9-3.92,20.3-8.58,2.19-1.89,2.18-1.88,3.28-1.42s1.55,1.15,1.55,2.77c0,2.86-1.93,6-6.41,10.26-7.19,6.93-15.39,10.49-26.33,11.43A33.29,33.29,0,0,1,436.13,145.18Zm23-42.89c5.86-1.35,10.12-3.81,12.86-7.43s3.23-6,1.59-7.71a4.57,4.57,0,0,0-3.9-1.6c-5.49,0-16.43,7.22-22.82,15.06l-1.58,1.93.77.19C447.4,103.06,457.17,102.73,459.12,102.29ZM162.65,141.91a19.29,19.29,0,0,1-12.71-10c-2.34-4.53-3.22-9-3-15,.3-7.33,2.24-13.17,7-20.95,6.55-10.77,14.31-19.12,23.06-24.8,5.57-3.62,15.74-8.13,20-8.87,5-.87,9.77,1.06,11.59,4.71,2.12,4.22,1.44,9.85-1.33,11.17a5.38,5.38,0,0,1-4.17,0c-.83-.39-.92-.56-1.07-2.08-.21-2-.72-3-1.9-3.9-.75-.54-1.25-.64-3-.64a7,7,0,0,0-3.87.86c-3.67,1.76-8.57,5.77-12.5,10.26-10.68,12.18-17.08,26.23-16,35a8.89,8.89,0,0,0,2.53,5.52c2.05,2.23,4.55,2.93,7.9,2.23,5.07-1.06,11.24-5.07,20.63-13.4,7.87-7,8.24-7.26,10.52-7.77,2.51-.56,4.31.53,4.37,2.64,0,.73-.6,1.84-3.12,5.56-6.69,9.87-9.61,13.55-14.54,18.33-5.88,5.7-11.08,8.85-17.65,10.68-3.57,1-9.86,1.18-12.83.37ZM459.77,71.78a3.22,3.22,0,0,1-.94-2.6c0-4.57,7.8-11,16.47-13.66,3.37-1,8-1.09,10.36-.16,4.5,1.79,5.56,6.62,2,9.06-.72.49-1.44.61-4.84.77-6.33.3-11.27,1.27-14.36,2.83-.72.36-2.44,1.41-3.83,2.32-1.93,1.26-2.76,1.65-3.53,1.65a3.37,3.37,0,0,1-1.31-.21Z" transform="translate(-4.61 -5.2)"/><path id="path2822" class="cls-1" d="M148.81,217c-8-2.15-18.83-8.54-20.56-12.17s-6.31-23.71-8.72-38.29c-2.7-16.38-3.27-37.22-1.52-55.82a225.35,225.35,0,0,1,8.81-44,147.24,147.24,0,0,1,10.12-24.84c1.82-3.63,3.22-6.61,3.13-6.61-.32,0-3.24,2.56-5.18,4.55-14.78,15.14-31,45.43-42,78.48a203.37,203.37,0,0,0-7.07,25.53,26.17,26.17,0,0,1-1.59,5.8c-1.36,1.83-4.2,2.6-9.07,2.47-3-.09-3.42-.16-4.42-.81A6.89,6.89,0,0,1,67.86,147c-.37-1.86-.94-36.82-.73-44.75.75-28.45,1.48-43.41,2.37-48.15.13-.68.11-1.17,0-1.17-.62,0-3.23,2.86-5,5.44C54.66,73,47.29,92,43,113.72c-2.92,14.72-4.33,28.82-5.24,52.22-.28,7.33-.41,8.23-1.39,9.81-2,3.21-9.61,7.34-14.81,8a5,5,0,0,1-4.7-2l-.8-1,0-7.2c.07-29.8,8-64,21-90.37A137.66,137.66,0,0,1,58.3,51.13c6.33-7.17,12-12.34,14.95-13.56,3.37-1.41,6.34.81,7.05,5.27.21,1.33.34,12.23.39,35,0,18.21.13,33.15.2,33.22a35.27,35.27,0,0,0,1.87-4.23C93.67,80,109.27,52.1,121.08,38.47c11-12.74,19.76-18.71,27.42-18.76,3.43,0,5.11,1.11,5.88,4,.5,1.86-.36,5.62-3.35,14.59-4.13,12.42-7.07,25.55-9.38,41.86-1.87,13.18-2.07,16.21-2.08,30.39a204,204,0,0,0,1.52,29.29c2.31,20.79,7.84,49,12.3,62.63,2.19,6.71,3.71,12.22,3.71,13.49,0,.65-.18.85-1.11,1.22C154.44,217.79,151.61,217.71,148.81,217Zm228.1-21a7.65,7.65,0,0,1-3.06-3.34c-.24-1-.33-.46,3.42-18.93,5.85-28.86,8.94-42.72,13.9-62.44,1.51-6,2.74-11,2.74-11s-1.52,1.93-3.39,4.41c-10.27,13.71-18.58,22.41-23.94,25-4,1.94-9.48-.2-10.94-4.25a18.21,18.21,0,0,1-.62-4.86l-.14-3.51-2.32,2.07a57.51,57.51,0,0,1-14.83,9.66,40.08,40.08,0,0,1-10.07,3.61,32.21,32.21,0,0,1-10.14,0c-4.71-1.23-8.48-5-10.49-10.63a7.14,7.14,0,0,0-1.24-2.56c-.16,0-2,1.16-4.09,2.5a163.73,163.73,0,0,1-27.43,14.63c-10.82,4.37-21,6.37-28.5,5.61a28.11,28.11,0,0,1-10.11-2.77c-10.32-4.91-16.24-13.25-18.06-25.45a73.68,73.68,0,0,1,.25-16.28,72.24,72.24,0,0,1,7.1-23.21C239.21,45.67,258.27,25.5,281.86,14a107.57,107.57,0,0,1,20.9-7.74c8.23-1.8,16.87-1,22.91,2.14q4.74,2.45,6.8,8.8c.6,1.85.74,2.88.86,6.35.14,4.35-.3,9.31-.86,9.77a12.54,12.54,0,0,1-4.68.86c-4,0-5.57-2.29-5.88-8.28-.2-3.86-.52-5-1.85-6.51-2.26-2.57-5.41-3.55-11.4-3.56A37.88,37.88,0,0,0,288,21.37C267.34,33.14,250.4,59,244.86,87.19a82.46,82.46,0,0,0-1.67,17c0,5.63,0,5.86.71,7.67a16.69,16.69,0,0,0,6.89,8.69,30.05,30.05,0,0,0,21.27,5c10.31-1.26,22-6.9,32.74-15.79,2.45-2,2.59-2.2,3.18-4A49.72,49.72,0,0,1,312.26,97c10-17.07,30.79-30.41,52.19-33.56,12.24-1.8,16.81.78,16.39,9.24-.21,4.27-1,6.58-6.14,17.44-2.74,5.82-4.22,9.21-6.26,14.34a9.38,9.38,0,0,0-.31,6.11c.46,1.29.56,1.39,1.5,1.47a4.64,4.64,0,0,0,2.4-.62c4.33-2.2,13-10.21,16.77-15.49,5.24-7.36,12.28-18.12,13.12-20,2.31-5.3,9.85-19.79,13.89-26.66,10.43-17.76,22.47-30.28,34.8-36.2,11.75-5.64,23-6.08,26.47-1a3.83,3.83,0,0,1,.64,2.81,21.84,21.84,0,0,1-1.88,7.17c-.61,1.19-1.91,1.8-3.81,1.82-2.57,0-3.84-1.25-4.52-4.53-.6-2.87-.61-2.88-3.47-2.69-13.31.86-27.41,16.33-39.59,43.44-2.17,4.83-4.65,10.94-4.49,11.09a12.17,12.17,0,0,0,2.57-.57c5.95-1.69,14.11-2.86,17.5-2.51,4,.42,6.54,2.53,7.08,5.89.22,1.36-.44,2.15-2,2.41-13,2.21-22,5.8-29.46,11.76-2.8,2.23-2.81,2.25-5,9-5.32,16.07-10.57,45.66-14.77,83.16l-1.05,9.39-.93.79A33.09,33.09,0,0,1,383,195.92c-2,.51-4.92.53-6,0Zm-43.79-80.87c5.55-1.54,12.66-6,18-11.37a88.84,88.84,0,0,0,13.14-18.59c2.64-5.44,3.38-8.71,2.49-11-.58-1.52-1.59-2.28-3.6-2.7-1.32-.28-1.88-.24-4.11.27C346.76,74.42,332.85,85,325.86,97c-2.68,4.57-4.33,9.8-4,12.66a9.36,9.36,0,0,0,2.27,4.65c1.55,1.45,5.38,1.8,9,.8Zm149.54,34.39a8.44,8.44,0,0,1-4.87-10.7,9,9,0,0,1,4.32-4.63,9.68,9.68,0,0,1,7.24,0,8,8,0,0,1,4.7,7.48,7.9,7.9,0,0,1-4.61,7.5,11,11,0,0,1-6.77.34Zm6.52-2a6.37,6.37,0,0,0,3-5.35,6,6,0,0,0-1.56-5,6.58,6.58,0,0,0-10.74,1.07,5.25,5.25,0,0,0-.77,3.4,5.92,5.92,0,0,0,1.75,4.8A6.71,6.71,0,0,0,489.18,147.52Zm-6.67-1.1a34.34,34.34,0,0,1-.18-4.84v-4.65H485c3.77,0,4.55.48,4.55,2.8,0,1.16-.94,2.45-1.78,2.45-.6,0-.57.1.82,2.24a22.36,22.36,0,0,1,1.24,2.05c0,.07-.36.13-.81.13-.71,0-1-.25-2-2s-1.33-2-2.09-2.09l-.88-.09v2.09c0,2,0,2.09-.64,2.09A1.53,1.53,0,0,1,482.5,146.42Zm4.63-5.61c.57-.22.71-.45.71-1.21,0-1.12-.3-1.28-2.37-1.28H484v2.76h1.23a6.8,6.8,0,0,0,1.93-.27Zm-53.05,4c-6.85-1.25-10.56-3.45-13.19-7.78-1.66-2.73-2.2-4.75-2.34-8.66-.29-8.05,2.73-16,9.88-26a61.83,61.83,0,0,1,42-24.6c5.89-.67,10.3,1.39,12.36,5.77.64,1.37.73,1.88.7,4.32-.06,6.75-4.07,13.7-10.41,18.05-7.14,4.9-19.81,7.12-31.82,5.58-2.25-.29-2-.51-4,3.31-3.49,6.65-3.72,11-.75,14.18,1.55,1.67,5,2.28,11.47,2a41.1,41.1,0,0,0,16.32-3.7,38.05,38.05,0,0,0,8.42-5.59c1.33-1.38,2.43-1.5,3.6-.42.7.65.75.84.65,2.32-.23,3.18-3,7.28-7.83,11.45-6.42,5.58-13.62,8.69-22.78,9.83a60.34,60.34,0,0,1-12.32-.13Zm23.78-42.27c5.38-.87,9.43-2.79,12.57-5.94,4.56-4.57,5.38-8.33,2.27-10.34a6,6,0,0,0-5.08-.59c-2.41.61-7.88,3.39-10.86,5.53-4.81,3.45-12.07,10.93-11.17,11.5C446.24,103.09,455.11,103,457.87,102.54ZM164,142.16a20.2,20.2,0,0,1-13-8.46c-2.76-4.2-4-9-4-15.28,0-8.18,1.95-14.3,7.26-22.84,10.34-16.63,22.6-26.66,39.56-32.35a13.91,13.91,0,0,1,5.39-1c5.87,0,9.31,2.62,10.37,8,.63,3.23-.17,6.26-2,7.63a5.26,5.26,0,0,1-4.69.09,1.47,1.47,0,0,1-.75-1.55,5,5,0,0,0-2.61-4.65,5.17,5.17,0,0,0-2.76-.29c-3.55.23-7.93,3-13.31,8.35-11.94,11.91-20.15,28.66-18.68,38.14a13,13,0,0,0,.77,3,13.16,13.16,0,0,0,4.09,4.15c4.94,2.52,13.05-1.29,24.88-11.7,10-8.79,10.41-9.08,13.1-9.08a2.45,2.45,0,0,1,2.28.8c1.45,1.45,1.23,2.11-2.41,7.53-9.79,14.54-16.56,21.6-25,26-5.73,3-13.4,4.46-18.49,3.46Zm295.52-70.8c-2.8-2.8,2.44-9.63,10.48-13.66,7.11-3.56,14.31-3.95,17.87-1a5.86,5.86,0,0,1,1.88,3.79,5.37,5.37,0,0,1-1.95,3.75c-.84.6-1.31.67-5.35.86a44.12,44.12,0,0,0-12.37,2.08,31.09,31.09,0,0,0-4.88,2.65c-3.45,2.27-4.58,2.57-5.67,1.48Z" transform="translate(-4.61 -5.2)"/><path id="path2820" class="cls-1" d="M150.19,217.21c-6.56-1.4-16-6.32-20.24-10.52a7.53,7.53,0,0,1-2.41-4.13c-2.44-7.62-7.16-29.9-8.55-40.34a226.8,226.8,0,0,1,7.41-93.87,150,150,0,0,1,10.51-26.26c2-3.91,3.48-7.12,3.41-7.12-.35,0-3.74,2.94-5.63,4.88-13.5,13.89-28.21,40.35-39.05,70.22A240.25,240.25,0,0,0,85,147.23c-.54,2.69-2.19,4.07-5.56,4.61a23.19,23.19,0,0,1-7.29,0,7.5,7.5,0,0,1-4-4c-.4-1.33-.79-18.34-.82-35.8,0-21.69,1.21-52.33,2.37-58.53l.18-1-.8.51c-1.54,1-2.4,2-5,5.83-9,13.48-15.89,30.54-20.17,49.74-3.54,15.89-5.4,32.23-6.21,54.57-.16,4.33-.35,8.54-.43,9.35-.25,2.55-1.61,4.59-4.25,6.38-5.13,3.48-12,5.56-14.3,4.36A5.35,5.35,0,0,1,16,179.63c-.24-1.62.3-15.52.84-21.43,3.82-41.86,18.69-81,40.06-105.41C67.09,41.19,72.66,36.67,76.05,37.31a5.94,5.94,0,0,1,3.41,2.92c1,2,1.69,11.62,1.15,16.85-.34,3.32-.1,54.88.25,54.51a39.93,39.93,0,0,0,1.59-3.67c7.85-19.67,18.86-41,29.19-56.64s22.42-27.4,31.18-30.42c4.24-1.46,8-1.42,9.78.11,2.67,2.35,2.36,5.43-1.85,17.88-1.21,3.57-2.7,8.48-3.31,10.91a307.53,307.53,0,0,0-7.61,45c-2.07,23.42,1,54.57,8.74,89.66a159.66,159.66,0,0,0,5,18.72c3.32,10.15,3.93,13.25,2.73,13.89-.91.48-4.11.56-6.06.14Zm227-21.28a5.22,5.22,0,0,1-3.09-3c-.41-1.08-.4-1.32.29-4.58.4-1.89,2.07-10.16,3.73-18.36,4.93-24.45,8.62-40.88,13.51-60.24C393,104.39,394.07,100,394,100s-1.87,2.32-4.08,5.25a144.61,144.61,0,0,1-14.55,17.1c-7.5,7.51-10.09,8.83-14.77,7.52a6.22,6.22,0,0,1-3.1-1.87c-1.79-1.75-2.33-3.4-2.56-7.89l-.16-3.18-1.66,1.55a54.78,54.78,0,0,1-13.33,9.18c-7.93,4-11.2,5-17.2,5a18.15,18.15,0,0,1-5.64-.49c-4.4-1.35-8.26-5.52-10-10.79-.41-1.24-.79-2.34-.85-2.45a12.5,12.5,0,0,0-2.95,1.7c-8.66,5.81-21.33,12.63-29.19,15.71-10.75,4.21-18.49,5.82-26.49,5.51a27.54,27.54,0,0,1-11.67-2.64c-9.68-4.63-15.29-11.91-17.69-23-.56-2.58-.63-3.64-.62-9.67,0-5.78.1-7.31.64-10.47,2-11.63,4.63-18.58,11.76-31q25.05-43.52,67-57.14a38.3,38.3,0,0,1,14.51-2.38c5.4,0,6.85.16,10.36,1.28,6,1.91,9.1,5.11,10.82,11.15.54,1.88.63,2.86.63,6.76,0,4.7-.45,8.42-1.06,8.65-.19.07-1.29.28-2.45.47-3.59.58-5.51-.18-6.72-2.66-.64-1.3-.76-2-.94-5.3s-.3-4-.92-5.21c-1.73-3.41-5.8-5.06-12.49-5.07a36.4,36.4,0,0,0-17.41,4A65.79,65.79,0,0,0,279,27.41a108.41,108.41,0,0,0-12.54,12.67C251.91,58.25,243.1,82.52,243,104.63c0,4.22,0,4.67.72,6.74a15.75,15.75,0,0,0,6.06,8.54,29,29,0,0,0,12.11,5.43,24.5,24.5,0,0,0,7.27.44,37,37,0,0,0,6.91-.72c9.35-2.15,20.1-7.87,29.37-15.63,1.86-1.56,2-1.78,2.7-3.8,1.44-4.28,5-10.5,8.77-15.23,10.79-13.6,28.36-23.7,46.5-26.73,4.57-.76,10.08-.84,12.28-.18,3.14,1,4.82,3.39,5.17,7.45s-1,8.14-6.36,19.43c-1.45,3-3.53,7.7-4.64,10.36-1.74,4.21-2,5.1-2.12,6.91a5.08,5.08,0,0,0,.53,3.32c.59,1.15.72,1.24,1.67,1.21,2.54-.08,11.67-7.19,16.09-12.54,3.47-4.2,14.76-20.81,15.76-23.19,2.41-5.7,10.45-21.09,14.72-28.2,9.55-15.87,19.69-26.89,30.7-33.37A52.12,52.12,0,0,1,464.82,8.7c5.61-.75,10.57.64,12.27,3.44.74,1.21.68,3.46-.17,6.39s-1.33,3.91-2.42,4.58a5.52,5.52,0,0,1-4.84,0c-1-.64-1.83-2.21-2.11-4.24a3.59,3.59,0,0,0-.84-2c-.59-.59-.81-.63-2.53-.48-12.6,1.12-24.86,13.44-36.42,36.56-3.22,6.45-8.35,18.13-8.08,18.41a8.11,8.11,0,0,0,1.73-.43c7.28-2.27,17.5-3.42,21-2.37A6.24,6.24,0,0,1,447,74.3c0,1.48-.26,1.63-4.05,2.27A80.62,80.62,0,0,0,430,80,57.06,57.06,0,0,0,414.26,89c-1.23,1.09-1.81,2.23-3.19,6.23-5.69,16.5-11.21,47.33-15.66,87.53-.82,7.38-.63,6.92-3.74,9-5.31,3.53-11.32,5.25-14.45,4.14ZM331.8,115.52c5.77-1.22,13.51-5.91,19.14-11.58a85.11,85.11,0,0,0,13.2-18.47c2.05-4.15,2.73-6.26,2.88-8.91.11-2,.06-2.31-.53-3.18-2-3-6.42-2.9-14.24.45a55.67,55.67,0,0,0-19,13.45c-8.68,9.06-13.21,19.42-10.76,24.6,1.66,3.52,4.58,4.66,9.34,3.65Zm151.57,34a8.12,8.12,0,0,1-5.61-5.53,7.47,7.47,0,0,1,0-4.72,8,8,0,0,1,8.18-5.77,8.13,8.13,0,0,1,7.12,4.2c.67,1.14.75,1.54.75,3.9,0,2.16-.11,2.82-.6,3.73a8.78,8.78,0,0,1-9.82,4.19ZM488,148.2a6.7,6.7,0,0,0,2.43-1.63,6.88,6.88,0,0,0-6.79-11.51,8.27,8.27,0,0,0-4.26,4.26C477.64,145.07,482.3,149.88,488,148.2Zm-5.36-6.6v-4.72l2.79.09c2.66.09,2.82.13,3.45.87a2.61,2.61,0,0,1-1,4.17l-.79.33,1.24,1.84a16.91,16.91,0,0,1,1.24,2c0,.09-.33.13-.74.08-.59-.07-1-.5-2-2.09-1.06-1.75-1.31-2-2-2H484v2.07c0,2,0,2.07-.69,2.07h-.69V141.6Zm5.1-1.14c.57-.81.54-1.21-.12-1.87-.42-.42-.92-.55-2.07-.55H484v3h1.64C487,141.07,487.33,141,487.69,140.46Zm-52.21,4.44a33.8,33.8,0,0,1-8.85-2.49c-3.71-1.81-6.92-6.38-7.77-11.07-1-5.75.34-12.48,4.07-19.83a61.22,61.22,0,0,1,35.78-30.92c10.11-3.32,16.84-3.64,20.73-1s4.95,7.23,3.28,13c-3,10.48-11.65,16.8-25.58,18.78a80.84,80.84,0,0,1-14.93.11c-3.36-.37-3-.63-5.35,4-2.6,5.2-3.17,8.78-1.82,11.43,1.51,3,2.83,3.65,8.05,4.2,10.31,1.08,22.82-2.87,30-9.47,1-.94,1.33-1.08,2-.93,2.18.48,2.46,2.91.76,6.37a19.05,19.05,0,0,1-4,5.17,55.84,55.84,0,0,1-5.26,4.79,43.21,43.21,0,0,1-10.74,5.65,49.72,49.72,0,0,1-20.38,2.18Zm20.59-42A26.72,26.72,0,0,0,469,98.14a16.3,16.3,0,0,0,5-6.15c1.09-2.28,1.06-3.42-.15-4.85-1.54-1.84-4.18-2.32-7.11-1.32-5.44,1.87-11.57,5.91-16.57,10.9-1.86,1.86-5.1,5.69-5.1,6s7.93.57,11.06.18ZM164.78,142.17a19.82,19.82,0,0,1-16.33-14.22c-1.11-3.59-1.38-6-1.23-11a26.73,26.73,0,0,1,1-7.68,44.9,44.9,0,0,1,6.07-13.54c10.32-16.58,21.64-26,38.6-32.11,5.81-2.09,10.74-1.7,13.73,1.11,2.14,2,3,4.11,3,7.47s-1.12,5.53-3.32,6.12a4.41,4.41,0,0,1-3.43-.45c-.68-.34-.76-.53-.76-1.83,0-4.35-4-6.06-8.86-3.74-5.47,2.63-11.42,8.12-17.13,15.84s-9.8,16.19-11.18,23c-.65,3.24-.47,7.71.39,9.48a10.34,10.34,0,0,0,4.24,4.48,10.2,10.2,0,0,0,6.87.27c4.7-1.4,11.84-6.22,19.6-13.24,4.12-3.72,7.49-6.49,8.6-7.06a6,6,0,0,1,4.4-.53,2.69,2.69,0,0,1,1.55,2.76c-.18.88-6.26,9.91-9.95,14.76A79.57,79.57,0,0,1,188.11,135a35.86,35.86,0,0,1-14.33,6.74,33.57,33.57,0,0,1-9,.45ZM460,71.73a2.1,2.1,0,0,1-.92-1.32c-1.38-4.61,7.23-12.26,16.76-14.87a20.9,20.9,0,0,1,8.81-.27c3.19.93,4.63,2.42,4.78,5a3.3,3.3,0,0,1-.54,2.62c-1.33,1.94-1.67,2-6.93,2.27-7.84.32-11.92,1.46-16.79,4.67-3,2-4.1,2.38-5.16,1.94Z" transform="translate(-4.61 -5.2)"/></svg>